<svg width="20" height="20" viewBox="0 0 20 20" fill="none" xmlns="http://www.w3.org/2000/svg">
<path d="M12.4281 4.32391H10.7642C8.78108 4.32391 8.37447 5.40717 8.37447 7.03361L8.37571 8.06573H7.43901C7.26689 8.06573 7.1272 8.20542 7.1272 8.37755V10.2485C7.1272 10.4206 7.26689 10.5603 7.43901 10.5603H8.37447V15.2375C8.37447 15.4097 8.51416 15.5494 8.68629 15.5494H10.5934C10.7655 15.5494 10.9052 15.4097 10.9052 15.2375L10.9064 10.5603H12.4281C12.6002 10.5603 12.7399 10.4206 12.7399 10.2485V8.37755C12.7399 8.20542 12.6002 8.06573 12.4281 8.06573H10.9058L10.9077 7.19513C10.9077 6.77543 10.9077 6.77543 11.2999 6.7748L12.4156 6.81846C12.4948 6.82095 12.5828 6.79039 12.6439 6.73177C12.705 6.67315 12.7399 6.59145 12.7399 6.50664V4.63573C12.7399 4.46361 12.6002 4.32391 12.4281 4.32391ZM12.1163 6.18235L11.3124 6.15117C10.3639 6.15117 10.2847 6.66691 10.2847 7.19389L10.2822 8.3763C10.2822 8.45924 10.3146 8.53844 10.3732 8.59707C10.4312 8.65631 10.5104 8.68936 10.5934 8.68936H12.1163V9.93664H10.5946C10.4225 9.93664 10.2828 10.0763 10.2828 10.2485L10.2815 14.9257H8.9981V10.2485C8.9981 10.0763 8.85841 9.93664 8.68629 9.93664H7.75083V8.68936H8.68816C8.7711 8.68936 8.8503 8.65631 8.90892 8.59769C8.96754 8.53907 8.99997 8.45987 8.99997 8.37692L8.9981 7.03299C8.9981 5.62045 9.26252 4.94755 10.7642 4.94755H12.1163V6.18235Z" fill="#808184"/>
<path d="M10 0C4.48644 0 0 4.48644 0 10C0 15.5136 4.48644 20 10 20C15.5136 20 20 15.5136 20 10C20 4.48644 15.5136 0 10 0ZM10 19.3327C4.85376 19.3327 0.66729 15.1462 0.66729 10C0.66729 4.85376 4.85376 0.66729 10 0.66729C15.1462 0.66729 19.3327 4.85376 19.3327 10C19.3327 15.1462 15.1462 19.3327 10 19.3327Z" fill="#808184"/>
</svg>
