<svg width="36" height="32" viewBox="0 0 36 32" fill="none" xmlns="http://www.w3.org/2000/svg">
<path d="M13.2086 7.75469C13.8666 10.3927 4.5356 18.2437 1.9646 11.8527C0.473605 8.14969 -0.828395 0.386691 0.651605 0.0176914C2.1316 -0.350309 12.5516 5.11569 13.2086 7.75469Z" fill="#F4900C"/>
<path d="M11.2147 8.30769C12.1747 9.84569 9.38368 12.8687 7.84668 13.8297C6.30868 14.7907 4.94768 13.2777 3.43268 9.41569C2.77068 7.72669 1.76668 3.14569 2.32968 2.79369C2.89168 2.44269 10.2537 6.76969 11.2147 8.30769Z" fill="#A0041E"/>
<path d="M22.3346 7.75469C21.6776 10.3937 31.0076 18.2437 33.5796 11.8527C35.0696 8.14969 36.3716 0.386691 34.8916 0.0176914C33.4116 -0.350309 22.9926 5.11569 22.3346 7.75469Z" fill="#F4900C"/>
<path d="M24.3297 8.30769C23.3697 9.84569 26.1607 12.8687 27.6977 13.8297C29.2347 14.7907 30.5957 13.2777 32.1107 9.41569C32.7727 7.72769 33.7767 3.14669 33.2147 2.79469C32.6517 2.44269 25.2907 6.76969 24.3297 8.30769Z" fill="#A0041E"/>
<path d="M32.1245 24.8647C32.1245 24.4107 31.9365 23.7737 31.7175 23.1777C32.3025 23.2057 33.2365 23.3687 34.4875 23.9947C34.4802 23.5178 34.3878 23.046 34.2145 22.6017C34.2555 22.6217 34.2895 22.6357 34.3305 22.6567C33.2275 19.3467 31.0215 17.1397 31.0215 17.1397H33.2275C30.8965 12.4767 28.2625 9.12468 25.1525 7.58068C23.7625 6.70768 21.4645 6.24268 17.7795 6.24168H17.7765C14.0815 6.24168 11.7805 6.70968 10.3915 7.58768C7.28749 9.13468 4.65749 12.4837 2.33049 17.1397H4.53749C4.53749 17.1397 2.33049 19.3457 1.22649 22.6567C1.25649 22.6417 1.28149 22.6317 1.31049 22.6167C1.09589 23.0425 0.998552 23.5178 1.02849 23.9937C2.29149 23.3617 3.24549 23.2017 3.84149 23.1757C3.65249 23.6887 3.49849 24.2197 3.45549 24.6507C3.31386 25.0833 3.2678 25.5415 3.32049 25.9937C6.52749 24.5367 8.02749 24.7447 9.77749 25.6197C10.9905 29.2427 13.9835 31.9527 17.7785 31.9527C21.5715 31.9527 24.5245 29.1587 25.7365 25.5367C27.1945 24.2867 29.4445 24.6617 32.1525 25.9527C32.2113 25.5895 32.1991 25.2183 32.1165 24.8597L32.1245 24.8647Z" fill="#F18F26"/>
<path d="M31.0206 21.5537C31.0266 21.5537 32.1286 21.5567 34.3296 22.6567C33.0806 19.8177 26.8046 18.5867 24.3986 19.3657C23.2276 21.3197 23.1176 24.3687 21.0156 25.9877C19.2746 27.4187 16.3026 27.4457 14.5366 25.9877C12.1916 24.0637 11.9776 20.1747 11.1546 19.3657C8.74763 18.5847 2.47363 19.8197 1.22363 22.6567C3.42463 21.5557 4.52763 21.5537 4.53263 21.5537C4.53263 21.5547 3.42963 23.7617 3.42963 24.8647L3.43063 24.8637V24.8647C5.82863 23.2917 8.54663 22.5937 10.8596 24.4127C12.5256 32.3337 23.1526 31.9577 24.6926 24.4127C27.0066 22.5947 29.7226 23.2907 32.1216 24.8647C32.1236 23.7617 31.0216 21.5537 31.0206 21.5537Z" fill="#FFD983"/>
<path d="M10.7776 14.9527C10.7776 14.9527 10.7776 13.4527 12.2776 13.4527C13.7776 13.4527 13.7776 14.9527 13.7776 14.9527V16.4527C13.7776 16.4527 13.7776 17.9527 12.2776 17.9527C10.7776 17.9527 10.7776 16.4527 10.7776 16.4527V14.9527ZM21.7776 14.9527C21.7776 14.9527 21.7776 13.4527 23.2776 13.4527C24.7776 13.4527 24.7776 14.9527 24.7776 14.9527V16.4527C24.7776 16.4527 24.7776 17.9527 23.2776 17.9527C21.7776 17.9527 21.7776 16.4527 21.7776 16.4527V14.9527ZM14.7166 25.7607C13.6956 25.9687 16.7576 29.7287 17.7786 29.7287C18.7986 29.7287 21.8606 25.9687 20.8406 25.7607C19.8196 25.5527 15.7376 25.5527 14.7166 25.7607Z" fill="#272B2B"/>
</svg>
