<svg width="20" height="20" viewBox="0 0 20 20" fill="none" xmlns="http://www.w3.org/2000/svg">
<path d="M16.1328 0H3.86719C1.73438 0 0 1.7337 0 3.86568V7.95002V16.1343C0 18.2663 1.73438 20 3.86719 20H16.1328C18.2656 20 20 18.2663 20 16.1343V7.94221V3.85787C19.9922 1.7337 18.2578 0 16.1328 0ZM17.2422 2.30379H17.6875V2.74112V5.69309L14.3047 5.7009L14.2969 2.3116L17.2422 2.30379ZM7.14062 7.94221C7.78125 7.05974 8.82031 6.47403 9.99219 6.47403C11.1641 6.47403 12.2031 7.05193 12.8437 7.94221C13.2656 8.52011 13.5078 9.23077 13.5078 9.9961C13.5078 11.9328 11.9297 13.5182 9.98438 13.5182C8.03906 13.5182 6.47656 11.9328 6.47656 9.9961C6.47656 9.23077 6.72656 8.52011 7.14062 7.94221ZM18.0469 16.1265C18.0469 17.1808 17.1875 18.0398 16.1328 18.0398H3.86719C2.8125 18.0398 1.95312 17.1808 1.95312 16.1265V7.94221H4.9375C4.67969 8.57478 4.53125 9.26982 4.53125 9.9961C4.53125 13.0105 6.98438 15.4627 10 15.4627C13.0156 15.4627 15.4688 13.0105 15.4688 9.9961C15.4688 9.26982 15.3203 8.57478 15.0625 7.94221H18.0469V16.1265Z" fill="#B4B4B4"/>
</svg>
