<svg width="25" height="25" viewBox="0 0 25 25" fill="none" xmlns="http://www.w3.org/2000/svg">
<path d="M25 12.5C25 5.6125 19.3875 0 12.5 0C5.6125 0 0 5.6125 0 12.5C0 16.125 1.5625 19.3875 4.0375 21.675C4.0375 21.6875 4.0375 21.6875 4.025 21.7C4.15 21.825 4.3 21.925 4.425 22.0375C4.5 22.1 4.5625 22.1625 4.6375 22.2125C4.8625 22.4 5.1125 22.575 5.35 22.75C5.4375 22.8125 5.5125 22.8625 5.6 22.925C5.8375 23.0875 6.0875 23.2375 6.35 23.375C6.4375 23.425 6.5375 23.4875 6.625 23.5375C6.875 23.675 7.1375 23.8 7.4125 23.9125C7.5125 23.9625 7.6125 24.0125 7.7125 24.05C7.9875 24.1625 8.2625 24.2625 8.5375 24.35C8.6375 24.3875 8.7375 24.425 8.8375 24.45C9.1375 24.5375 9.4375 24.6125 9.7375 24.6875C9.825 24.7125 9.9125 24.7375 10.0125 24.75C10.3625 24.825 10.7125 24.875 11.075 24.9125C11.125 24.9125 11.175 24.925 11.225 24.9375C11.65 24.975 12.075 25 12.5 25C12.925 25 13.35 24.975 13.7625 24.9375C13.8125 24.9375 13.8625 24.925 13.9125 24.9125C14.275 24.875 14.625 24.825 14.975 24.75C15.0625 24.7375 15.15 24.7 15.25 24.6875C15.55 24.6125 15.8625 24.55 16.15 24.45C16.25 24.4125 16.35 24.375 16.45 24.35C16.725 24.25 17.0125 24.1625 17.275 24.05C17.375 24.0125 17.475 23.9625 17.575 23.9125C17.8375 23.8 18.1 23.675 18.3625 23.5375C18.4625 23.4875 18.55 23.425 18.6375 23.375C18.8875 23.225 19.1375 23.0875 19.3875 22.925C19.475 22.875 19.55 22.8125 19.6375 22.75C19.8875 22.575 20.125 22.4 20.35 22.2125C20.425 22.15 20.4875 22.0875 20.5625 22.0375C20.7 21.925 20.8375 21.8125 20.9625 21.7C20.9625 21.6875 20.9625 21.6875 20.95 21.675C23.4375 19.3875 25 16.125 25 12.5ZM18.675 18.7125C15.2875 16.4375 9.7375 16.4375 6.325 18.7125C5.775 19.075 5.325 19.5 4.95 19.9625C3.05 18.0375 1.875 15.4 1.875 12.5C1.875 6.6375 6.6375 1.875 12.5 1.875C18.3625 1.875 23.125 6.6375 23.125 12.5C23.125 15.4 21.95 18.0375 20.05 19.9625C19.6875 19.5 19.225 19.075 18.675 18.7125Z" fill="#292D32"/>
<path d="M12.5 6.16211C9.9125 6.16211 7.8125 8.26211 7.8125 10.8496C7.8125 13.3871 9.8 15.4496 12.4375 15.5246C12.475 15.5246 12.525 15.5246 12.55 15.5246C12.575 15.5246 12.6125 15.5246 12.6375 15.5246C12.65 15.5246 12.6625 15.5246 12.6625 15.5246C15.1875 15.4371 17.175 13.3871 17.1875 10.8496C17.1875 8.26211 15.0875 6.16211 12.5 6.16211Z" fill="#292D32"/>
</svg>
