<svg width="23" height="22" viewBox="0 0 23 22" fill="none" xmlns="http://www.w3.org/2000/svg">
<path d="M22 2.94033C20.8808 2.73024 19.7523 2.60421 18.6208 2.56291C18.0067 1.76342 17.1979 1.23634 16.3189 1.0627C15.4399 0.88905 14.5392 1.07845 13.7553 1.60178C12.9715 2.1251 12.3478 2.95339 11.9803 3.95932C11.6127 4.96525 11.5216 6.09313 11.7208 7.16959C8.35417 6.95761 5.80417 4.81196 3.42083 1.62192C3.09583 2.4078 2.47917 4.91537 2.95833 6.72495C3.52736 8.51358 4.50485 10.0571 5.77083 11.1662C4.5526 11.0971 3.35246 10.7737 2.22083 10.2097C2.80833 12.6035 4.825 16.0779 7.99583 16.6208C6.5637 18.0247 4.79176 18.7879 2.96667 18.7871C2.64382 18.7918 2.32104 18.7728 2 18.7303C3.84987 20.2136 6.00584 21.0018 8.20833 21C15.6542 21 19.7292 13.3015 19.7292 6.62155V5.96493L22 2.94033Z" stroke="black"/>
</svg>
