<svg width="20" height="17" viewBox="0 0 20 17" fill="none" xmlns="http://www.w3.org/2000/svg">
<path d="M11.3719 12.7799C10.6143 11.8144 9.38638 11.8144 8.62878 12.7799C7.87118 13.7455 7.87118 15.3103 8.62878 16.2759C9.38638 17.2414 10.6143 17.2414 11.3719 16.2759C12.1295 15.3103 12.1295 13.7455 11.3719 12.7799ZM16.6292 9.57576L14.6863 12.0518C12.0987 8.75402 7.90266 8.75402 5.31501 12.0518L3.37214 9.57576C7.03289 4.91034 12.9684 4.91034 16.6292 9.57576ZM18.0001 7.8278C13.5817 2.19687 6.41829 2.19687 1.99993 7.8278L0 5.279C5.52294 -1.75967 14.4771 -1.75967 20 5.279L18.0001 7.8278Z" fill="#808080"/>
</svg>
